<?xml version="1.0" encoding="UTF-8" standalone="no"?>
<!DOCTYPE svg PUBLIC "-//W3C//DTD SVG 1.1//EN" "http://www.w3.org/Graphics/SVG/1.1/DTD/svg11.dtd">
<svg width="100%" height="100%" viewBox="0 0 1557 434" version="1.1" xmlns="http://www.w3.org/2000/svg" xmlns:xlink="http://www.w3.org/1999/xlink" xml:space="preserve" xmlns:serif="http://www.serif.com/" style="fill-rule:evenodd;clip-rule:evenodd;stroke-linejoin:round;stroke-miterlimit:2;">
    <g transform="matrix(1,0,0,1,-238.075,-942.418)">
        <g transform="matrix(0.562709,0,0,0.562709,7.18593,590.302)">
            <g transform="matrix(1.6246,0,0,1.59965,-1170.71,413.885)">
                <path d="M1125,541.755C1037.41,517.054 973.177,436.495 973.177,341.05C973.177,225.918 1066.65,132.446 1181.78,132.446C1296.91,132.446 1390.39,225.918 1390.39,341.05C1390.39,436.483 1326.16,517.034 1238.6,541.745L1238.62,511.957C1238.62,484.946 1250.24,459.239 1270.51,441.389C1298.25,416.839 1315.75,380.972 1315.75,341.05C1315.75,267.113 1255.72,207.085 1181.78,207.085C1107.84,207.085 1047.82,267.113 1047.82,341.05C1047.82,380.972 1065.32,416.839 1093.09,441.344C1113.38,459.206 1125,484.929 1125,511.957L1125,541.755Z" style="fill:url(#_Linear1);"/>
            </g>
            <g transform="matrix(-1.6995,0,0,1.6734,2733.58,406.106)">
                <path d="M1221.89,522.517L1221.86,556.165C1221.86,575.6 1206.1,591.355 1186.67,591.355L1148.49,591.355C1129.06,591.355 1113.31,575.6 1113.31,556.165L1113.31,522.527C1130.55,527.465 1148.76,530.078 1167.58,530.078C1186.41,530.078 1204.64,527.462 1221.89,522.517Z" style="fill:rgb(46,53,63);"/>
            </g>
            <g transform="matrix(3.64001,0,0,3.64001,-2174.82,-1117.44)">
                <g transform="matrix(199.164,0,0,199.164,927.307,642.724)">
                    <path d="M0.02,-0.034C0.021,-0.051 0.025,-0.07 0.034,-0.091C0.042,-0.112 0.052,-0.128 0.063,-0.14C0.116,-0.112 0.163,-0.098 0.202,-0.098C0.221,-0.098 0.235,-0.101 0.245,-0.108C0.255,-0.114 0.26,-0.122 0.26,-0.133C0.26,-0.153 0.245,-0.168 0.214,-0.178L0.159,-0.199C0.076,-0.23 0.034,-0.28 0.034,-0.349C0.034,-0.4 0.051,-0.44 0.086,-0.469C0.122,-0.499 0.169,-0.514 0.228,-0.514C0.257,-0.514 0.29,-0.51 0.325,-0.501C0.36,-0.493 0.389,-0.483 0.412,-0.472C0.413,-0.453 0.41,-0.433 0.401,-0.41C0.392,-0.388 0.382,-0.372 0.369,-0.363C0.313,-0.388 0.266,-0.401 0.229,-0.401C0.216,-0.401 0.205,-0.398 0.199,-0.392C0.192,-0.386 0.188,-0.378 0.188,-0.369C0.188,-0.353 0.201,-0.34 0.226,-0.331L0.288,-0.309C0.377,-0.278 0.421,-0.224 0.421,-0.148C0.421,-0.098 0.403,-0.058 0.366,-0.029C0.329,0 0.277,0.015 0.209,0.015C0.141,0.015 0.078,-0.001 0.02,-0.034Z" style="fill:rgb(46,53,63);fill-rule:nonzero;"/>
                </g>
                <g transform="matrix(199.164,0,0,199.164,1015.54,642.724)">
                    <path d="M0.42,-0.455C0.468,-0.407 0.492,-0.338 0.492,-0.249C0.492,-0.209 0.487,-0.173 0.476,-0.14C0.466,-0.107 0.451,-0.08 0.432,-0.057C0.412,-0.034 0.388,-0.016 0.359,-0.004C0.33,0.009 0.297,0.015 0.26,0.015C0.223,0.015 0.19,0.009 0.162,-0.004C0.133,-0.017 0.109,-0.035 0.09,-0.058C0.07,-0.081 0.055,-0.108 0.045,-0.141C0.035,-0.174 0.03,-0.21 0.03,-0.249C0.03,-0.289 0.035,-0.325 0.045,-0.358C0.055,-0.39 0.07,-0.418 0.089,-0.441C0.108,-0.464 0.132,-0.482 0.161,-0.495C0.19,-0.508 0.223,-0.514 0.26,-0.514C0.326,-0.514 0.379,-0.494 0.42,-0.455ZM0.261,-0.397C0.246,-0.397 0.234,-0.394 0.225,-0.387C0.216,-0.38 0.208,-0.37 0.203,-0.358C0.198,-0.346 0.194,-0.332 0.192,-0.317C0.19,-0.301 0.189,-0.284 0.189,-0.266C0.189,-0.238 0.19,-0.214 0.192,-0.194C0.193,-0.173 0.197,-0.156 0.202,-0.142C0.207,-0.129 0.214,-0.119 0.223,-0.112C0.232,-0.105 0.244,-0.102 0.258,-0.102C0.288,-0.102 0.307,-0.115 0.317,-0.141C0.326,-0.166 0.331,-0.203 0.331,-0.25C0.331,-0.298 0.326,-0.335 0.317,-0.36C0.307,-0.385 0.289,-0.397 0.261,-0.397Z" style="fill:rgb(46,53,63);fill-rule:nonzero;"/>
                </g>
                <g transform="matrix(199.164,0,0,199.164,1119.5,642.724)">
                    <path d="M0.255,-0.115L0.282,-0.115C0.29,-0.093 0.294,-0.071 0.294,-0.048C0.294,-0.026 0.293,-0.012 0.291,-0.005C0.251,0.002 0.215,0.005 0.184,0.005C0.139,0.005 0.107,-0.006 0.087,-0.029C0.069,-0.051 0.059,-0.086 0.059,-0.134L0.059,-0.729L0.065,-0.736L0.126,-0.736C0.157,-0.736 0.179,-0.729 0.192,-0.715C0.205,-0.701 0.211,-0.677 0.211,-0.642L0.211,-0.162C0.211,-0.131 0.226,-0.115 0.255,-0.115Z" style="fill:rgb(46,53,63);fill-rule:nonzero;"/>
                </g>
                <g transform="matrix(199.164,0,0,199.164,1180.24,642.724)">
                    <path d="M0.249,-0.119L0.336,-0.498C0.355,-0.502 0.376,-0.504 0.399,-0.504C0.428,-0.504 0.453,-0.5 0.474,-0.492L0.479,-0.485C0.411,-0.237 0.365,-0.075 0.34,-0C0.306,0.004 0.27,0.006 0.233,0.006C0.195,0.006 0.168,0.001 0.152,-0.01C0.136,-0.02 0.124,-0.04 0.115,-0.069L-0.005,-0.487C0.028,-0.501 0.057,-0.508 0.082,-0.508C0.107,-0.508 0.127,-0.502 0.141,-0.492C0.155,-0.481 0.165,-0.462 0.172,-0.435L0.217,-0.248C0.22,-0.235 0.228,-0.195 0.239,-0.127C0.24,-0.122 0.243,-0.119 0.249,-0.119Z" style="fill:rgb(46,53,63);fill-rule:nonzero;"/>
                </g>
                <g transform="matrix(199.164,0,0,199.164,1273.25,642.724)">
                    <path d="M0.449,-0.199L0.189,-0.199C0.19,-0.169 0.198,-0.146 0.212,-0.13C0.226,-0.113 0.249,-0.105 0.281,-0.105C0.297,-0.105 0.315,-0.107 0.336,-0.112C0.357,-0.116 0.381,-0.124 0.408,-0.134C0.43,-0.111 0.444,-0.081 0.449,-0.042C0.396,-0.004 0.33,0.015 0.253,0.015C0.211,0.015 0.176,0.008 0.148,-0.005C0.119,-0.018 0.096,-0.037 0.079,-0.061C0.061,-0.085 0.048,-0.113 0.041,-0.146C0.034,-0.179 0.03,-0.214 0.03,-0.253C0.03,-0.29 0.035,-0.325 0.043,-0.357C0.053,-0.388 0.066,-0.416 0.085,-0.439C0.103,-0.462 0.126,-0.481 0.155,-0.494C0.183,-0.507 0.216,-0.514 0.254,-0.514C0.286,-0.514 0.315,-0.509 0.341,-0.498C0.366,-0.487 0.388,-0.473 0.406,-0.454C0.424,-0.435 0.438,-0.413 0.448,-0.387C0.457,-0.361 0.462,-0.333 0.462,-0.302C0.462,-0.261 0.458,-0.227 0.449,-0.199ZM0.188,-0.307L0.319,-0.307L0.319,-0.318C0.319,-0.343 0.314,-0.363 0.303,-0.379C0.292,-0.395 0.275,-0.403 0.254,-0.403C0.232,-0.403 0.217,-0.396 0.206,-0.381C0.196,-0.366 0.19,-0.341 0.188,-0.307Z" style="fill:rgb(46,53,63);fill-rule:nonzero;"/>
                </g>
                <g transform="matrix(199.164,0,0,199.164,1372.24,642.724)">
                    <path d="M0.42,-0.455C0.468,-0.407 0.492,-0.338 0.492,-0.249C0.492,-0.209 0.487,-0.173 0.476,-0.14C0.466,-0.107 0.451,-0.08 0.432,-0.057C0.412,-0.034 0.388,-0.016 0.359,-0.004C0.33,0.009 0.297,0.015 0.26,0.015C0.223,0.015 0.19,0.009 0.162,-0.004C0.133,-0.017 0.109,-0.035 0.09,-0.058C0.07,-0.081 0.055,-0.108 0.045,-0.141C0.035,-0.174 0.03,-0.21 0.03,-0.249C0.03,-0.289 0.035,-0.325 0.045,-0.358C0.055,-0.39 0.07,-0.418 0.089,-0.441C0.108,-0.464 0.132,-0.482 0.161,-0.495C0.19,-0.508 0.223,-0.514 0.26,-0.514C0.326,-0.514 0.379,-0.494 0.42,-0.455ZM0.261,-0.397C0.246,-0.397 0.234,-0.394 0.225,-0.387C0.216,-0.38 0.208,-0.37 0.203,-0.358C0.198,-0.346 0.194,-0.332 0.192,-0.317C0.19,-0.301 0.189,-0.284 0.189,-0.266C0.189,-0.238 0.19,-0.214 0.192,-0.194C0.193,-0.173 0.197,-0.156 0.202,-0.142C0.207,-0.129 0.214,-0.119 0.223,-0.112C0.232,-0.105 0.244,-0.102 0.258,-0.102C0.288,-0.102 0.307,-0.115 0.317,-0.141C0.326,-0.166 0.331,-0.203 0.331,-0.25C0.331,-0.298 0.326,-0.335 0.317,-0.36C0.307,-0.385 0.289,-0.397 0.261,-0.397Z" style="fill:rgb(46,53,63);fill-rule:nonzero;"/>
                </g>
            </g>
            <g transform="matrix(1.12091,0,0,1.12091,414.478,185.222)">
                <g transform="matrix(100.428,0,0,100.428,808.338,1070.85)">
                    <path d="M0.581,-0.34L0.699,-0.34L0.699,-0.101C0.633,-0.028 0.539,0.008 0.416,0.008C0.313,0.008 0.226,-0.026 0.157,-0.094C0.087,-0.162 0.052,-0.248 0.052,-0.352C0.052,-0.456 0.087,-0.543 0.159,-0.612C0.23,-0.681 0.315,-0.716 0.416,-0.716C0.517,-0.716 0.6,-0.687 0.667,-0.628L0.604,-0.538C0.577,-0.561 0.549,-0.578 0.522,-0.587C0.494,-0.596 0.462,-0.6 0.425,-0.6C0.354,-0.6 0.295,-0.577 0.247,-0.532C0.199,-0.486 0.175,-0.426 0.175,-0.352C0.175,-0.277 0.198,-0.218 0.245,-0.172C0.292,-0.128 0.348,-0.105 0.414,-0.105C0.481,-0.105 0.536,-0.119 0.581,-0.148L0.581,-0.34Z" style="fill:rgb(46,53,63);fill-rule:nonzero;"/>
                </g>
                <g transform="matrix(100.428,0,0,100.428,904.247,1070.85)">
                    <path d="M0.588,-0.699L0.588,-0.588L0.215,-0.588L0.215,-0.403L0.55,-0.403L0.55,-0.298L0.215,-0.298L0.215,-0.111L0.6,-0.111L0.6,-0L0.097,-0L0.097,-0.699L0.588,-0.699Z" style="fill:rgb(46,53,63);fill-rule:nonzero;"/>
                </g>
                <g transform="matrix(100.428,0,0,100.428,989.812,1070.85)">
                    <path d="M0.361,-0.591L0.361,-0L0.243,-0L0.243,-0.591L0.031,-0.591L0.031,-0.699L0.573,-0.699L0.573,-0.591L0.361,-0.591Z" style="fill:rgb(46,53,63);fill-rule:nonzero;"/>
                </g>
                <g transform="matrix(100.428,0,0,100.428,1070.36,1070.85)">
                    <path d="M0.361,-0.591L0.361,-0L0.243,-0L0.243,-0.591L0.031,-0.591L0.031,-0.699L0.573,-0.699L0.573,-0.591L0.361,-0.591Z" style="fill:rgb(46,53,63);fill-rule:nonzero;"/>
                </g>
                <g transform="matrix(100.428,0,0,100.428,1150.9,1070.85)">
                    <rect x="0.097" y="-0.699" width="0.118" height="0.699" style="fill:rgb(46,53,63);fill-rule:nonzero;"/>
                </g>
                <g transform="matrix(100.428,0,0,100.428,1202.12,1070.85)">
                    <path d="M0.621,-0.699L0.739,-0.699L0.739,-0L0.611,-0L0.215,-0.51L0.215,-0L0.097,-0L0.097,-0.699L0.215,-0.699L0.621,-0.177L0.621,-0.699Z" style="fill:rgb(46,53,63);fill-rule:nonzero;"/>
                </g>
                <g transform="matrix(100.428,0,0,100.428,1305.96,1070.85)">
                    <path d="M0.581,-0.34L0.699,-0.34L0.699,-0.101C0.633,-0.028 0.539,0.008 0.416,0.008C0.313,0.008 0.226,-0.026 0.157,-0.094C0.087,-0.162 0.052,-0.248 0.052,-0.352C0.052,-0.456 0.087,-0.543 0.159,-0.612C0.23,-0.681 0.315,-0.716 0.416,-0.716C0.517,-0.716 0.6,-0.687 0.667,-0.628L0.604,-0.538C0.577,-0.561 0.549,-0.578 0.522,-0.587C0.494,-0.596 0.462,-0.6 0.425,-0.6C0.354,-0.6 0.295,-0.577 0.247,-0.532C0.199,-0.486 0.175,-0.426 0.175,-0.352C0.175,-0.277 0.198,-0.218 0.245,-0.172C0.292,-0.128 0.348,-0.105 0.414,-0.105C0.481,-0.105 0.536,-0.119 0.581,-0.148L0.581,-0.34Z" style="fill:rgb(46,53,63);fill-rule:nonzero;"/>
                </g>
                <g transform="matrix(100.428,0,0,100.428,1449.27,1070.85)">
                    <path d="M0.361,-0.591L0.361,-0L0.243,-0L0.243,-0.591L0.031,-0.591L0.031,-0.699L0.573,-0.699L0.573,-0.591L0.361,-0.591Z" style="fill:rgb(46,53,63);fill-rule:nonzero;"/>
                </g>
                <g transform="matrix(100.428,0,0,100.428,1529.82,1070.85)">
                    <path d="M0.097,-0L0.097,-0.699L0.215,-0.699L0.215,-0.396L0.562,-0.396L0.562,-0.699L0.68,-0.699L0.68,-0L0.562,-0L0.562,-0.286L0.215,-0.286L0.215,-0L0.097,-0Z" style="fill:rgb(46,53,63);fill-rule:nonzero;"/>
                </g>
                <g transform="matrix(100.428,0,0,100.428,1627.73,1070.85)">
                    <rect x="0.097" y="-0.699" width="0.118" height="0.699" style="fill:rgb(46,53,63);fill-rule:nonzero;"/>
                </g>
                <g transform="matrix(100.428,0,0,100.428,1678.95,1070.85)">
                    <path d="M0.621,-0.699L0.739,-0.699L0.739,-0L0.611,-0L0.215,-0.51L0.215,-0L0.097,-0L0.097,-0.699L0.215,-0.699L0.621,-0.177L0.621,-0.699Z" style="fill:rgb(46,53,63);fill-rule:nonzero;"/>
                </g>
                <g transform="matrix(100.428,0,0,100.428,1782.79,1070.85)">
                    <path d="M0.581,-0.34L0.699,-0.34L0.699,-0.101C0.633,-0.028 0.539,0.008 0.416,0.008C0.313,0.008 0.226,-0.026 0.157,-0.094C0.087,-0.162 0.052,-0.248 0.052,-0.352C0.052,-0.456 0.087,-0.543 0.159,-0.612C0.23,-0.681 0.315,-0.716 0.416,-0.716C0.517,-0.716 0.6,-0.687 0.667,-0.628L0.604,-0.538C0.577,-0.561 0.549,-0.578 0.522,-0.587C0.494,-0.596 0.462,-0.6 0.425,-0.6C0.354,-0.6 0.295,-0.577 0.247,-0.532C0.199,-0.486 0.175,-0.426 0.175,-0.352C0.175,-0.277 0.198,-0.218 0.245,-0.172C0.292,-0.128 0.348,-0.105 0.414,-0.105C0.481,-0.105 0.536,-0.119 0.581,-0.148L0.581,-0.34Z" style="fill:rgb(46,53,63);fill-rule:nonzero;"/>
                </g>
                <g transform="matrix(100.428,0,0,100.428,1878.7,1070.85)">
                    <path d="M0.309,-0.607C0.274,-0.607 0.246,-0.6 0.224,-0.586C0.202,-0.572 0.191,-0.551 0.191,-0.523C0.191,-0.494 0.202,-0.472 0.224,-0.458C0.246,-0.443 0.293,-0.426 0.365,-0.409C0.436,-0.392 0.49,-0.367 0.527,-0.336C0.563,-0.305 0.581,-0.259 0.581,-0.198C0.581,-0.137 0.558,-0.087 0.512,-0.049C0.466,-0.011 0.406,0.008 0.331,0.008C0.222,0.008 0.125,-0.03 0.04,-0.105L0.114,-0.194C0.185,-0.133 0.258,-0.102 0.334,-0.102C0.372,-0.102 0.402,-0.11 0.425,-0.127C0.447,-0.143 0.458,-0.165 0.458,-0.192C0.458,-0.219 0.448,-0.239 0.427,-0.255C0.406,-0.27 0.369,-0.283 0.318,-0.296C0.267,-0.308 0.228,-0.319 0.201,-0.33C0.174,-0.34 0.151,-0.353 0.13,-0.37C0.089,-0.401 0.068,-0.449 0.068,-0.514C0.068,-0.579 0.092,-0.628 0.139,-0.664C0.186,-0.699 0.244,-0.716 0.313,-0.716C0.358,-0.716 0.402,-0.709 0.446,-0.694C0.49,-0.679 0.528,-0.659 0.56,-0.632L0.497,-0.543C0.476,-0.562 0.448,-0.577 0.413,-0.589C0.378,-0.601 0.343,-0.607 0.309,-0.607Z" style="fill:rgb(46,53,63);fill-rule:nonzero;"/>
                </g>
                <g transform="matrix(100.428,0,0,100.428,2009.26,1070.85)">
                    <path d="M0.337,-0.699C0.462,-0.699 0.559,-0.669 0.626,-0.608C0.693,-0.547 0.727,-0.462 0.727,-0.353C0.727,-0.244 0.694,-0.158 0.629,-0.095C0.564,-0.032 0.464,-0 0.329,-0L0.097,-0L0.097,-0.699L0.337,-0.699ZM0.608,-0.35C0.608,-0.51 0.516,-0.59 0.333,-0.59L0.215,-0.59L0.215,-0.111L0.346,-0.111C0.431,-0.111 0.496,-0.131 0.541,-0.172C0.586,-0.212 0.608,-0.271 0.608,-0.35Z" style="fill:rgb(46,53,63);fill-rule:nonzero;"/>
                </g>
                <g transform="matrix(100.428,0,0,100.428,2107.68,1070.85)">
                    <path d="M0.596,-0.534C0.548,-0.583 0.489,-0.608 0.42,-0.608C0.351,-0.608 0.292,-0.583 0.245,-0.534C0.197,-0.485 0.173,-0.425 0.173,-0.355C0.173,-0.284 0.197,-0.224 0.245,-0.175C0.292,-0.126 0.351,-0.101 0.42,-0.101C0.489,-0.101 0.548,-0.126 0.596,-0.175C0.643,-0.224 0.667,-0.284 0.667,-0.355C0.667,-0.425 0.643,-0.485 0.596,-0.534ZM0.682,-0.097C0.611,-0.028 0.524,0.007 0.42,0.007C0.316,0.007 0.229,-0.028 0.158,-0.097C0.087,-0.166 0.052,-0.252 0.052,-0.355C0.052,-0.458 0.087,-0.544 0.158,-0.613C0.229,-0.682 0.316,-0.716 0.42,-0.716C0.524,-0.716 0.611,-0.682 0.682,-0.613C0.753,-0.544 0.788,-0.458 0.788,-0.355C0.788,-0.252 0.753,-0.166 0.682,-0.097Z" style="fill:rgb(46,53,63);fill-rule:nonzero;"/>
                </g>
                <g transform="matrix(100.428,0,0,100.428,2211.92,1070.85)">
                    <path d="M0.621,-0.699L0.739,-0.699L0.739,-0L0.611,-0L0.215,-0.51L0.215,-0L0.097,-0L0.097,-0.699L0.215,-0.699L0.621,-0.177L0.621,-0.699Z" style="fill:rgb(46,53,63);fill-rule:nonzero;"/>
                </g>
                <g transform="matrix(100.428,0,0,100.428,2315.77,1070.85)">
                    <path d="M0.588,-0.699L0.588,-0.588L0.215,-0.588L0.215,-0.403L0.55,-0.403L0.55,-0.298L0.215,-0.298L0.215,-0.111L0.6,-0.111L0.6,-0L0.097,-0L0.097,-0.699L0.588,-0.699Z" style="fill:rgb(46,53,63);fill-rule:nonzero;"/>
                </g>
            </g>
        </g>
    </g>
    <defs>
        <linearGradient id="_Linear1" x1="0" y1="0" x2="1" y2="0" gradientUnits="userSpaceOnUse" gradientTransform="matrix(417.209,0,0,409.309,973.177,337.1)"><stop offset="0" style="stop-color:rgb(0,201,255);stop-opacity:1"/><stop offset="1" style="stop-color:rgb(161,82,255);stop-opacity:1"/></linearGradient>
    </defs>
</svg>
